<svg id="add_photo_alternate-24px" xmlns="http://www.w3.org/2000/svg" width="24" height="24" viewBox="0 0 24 24">
  <path id="Path_5813" data-name="Path 5813" d="M0,0H24V24H0Z" fill="none"/>
  <path id="Path_5814" data-name="Path 5814" d="M22.6,5.263H20.4v-2.2A1.068,1.068,0,0,0,19.338,2H19.3a1.07,1.07,0,0,0-1.077,1.066v2.2H16.042a1.084,1.084,0,0,0-1.077,1.066v.033a1.072,1.072,0,0,0,1.077,1.077h2.186V9.625A1.063,1.063,0,0,0,19.3,10.691h.033A1.068,1.068,0,0,0,20.4,9.625V7.439h2.2a1.068,1.068,0,0,0,1.066-1.066V6.329A1.068,1.068,0,0,0,22.6,5.263ZM17.14,9.625v-1.1h-1.1a2.155,2.155,0,0,1-2.165-2.2,2.09,2.09,0,0,1,.294-1.066h-9A2.182,2.182,0,0,0,3,7.439V20.491a2.182,2.182,0,0,0,2.175,2.175H18.228A2.182,2.182,0,0,0,20.4,20.491V11.485a2.228,2.228,0,0,1-1.109.3A2.175,2.175,0,0,1,17.14,9.625ZM17.1,20.491H6.263a.544.544,0,0,1-.435-.87L7.982,16.76a.55.55,0,0,1,.892.022l1.74,2.621,2.839-3.785a.541.541,0,0,1,.859-.011l3.209,4A.542.542,0,0,1,17.1,20.491Z" transform="translate(-1 -0.667)" fill="rgba(0,0,0,0.6)"/>
</svg>
