<svg xmlns="http://www.w3.org/2000/svg" width="24" height="24" viewBox="0 0 24 24">
  <g id="Group_1163" data-name="Group 1163" transform="translate(-1874 -880)">
    <circle id="Ellipse_252" data-name="Ellipse 252" cx="12" cy="12" r="12" transform="translate(1874 880)" fill="#f76301"/>
    <g id="close-24px" transform="translate(1876 882)">
      <path id="Path_5803" data-name="Path 5803" d="M0,0H20V20H0Z" fill="none"/>
      <path id="Path_5804" data-name="Path 5804" d="M14.389,5.618a.694.694,0,0,0-.982,0L10,9.018,6.594,5.611a.695.695,0,0,0-.982.982L9.018,10,5.611,13.406a.695.695,0,0,0,.982.982L10,10.982l3.406,3.406a.695.695,0,0,0,.982-.982L10.982,10l3.406-3.406A.7.7,0,0,0,14.389,5.618Z" transform="translate(0 0)" fill="#fff"/>
    </g>
  </g>
</svg>
