<svg xmlns="http://www.w3.org/2000/svg" width="192" height="192" viewBox="0 0 192 192"><defs><style>.a{fill:#7d0;}.b{fill:#6b0;}.c{fill:#e7e7e7;}.d{fill:#d3d3d8;}</style></defs><path class="a" d="M96,0C43.237,0,0,43.237,0,96s43.237,96,96,96,96-43.237,96-96S148.762,0,96,0Z"/><path class="b" d="M352,96c0,52.762-43.238,96-96,96V0C308.762,0,352,43.237,352,96Z" transform="translate(-160)"/><path class="c" d="M212.987,186.063l-65.925,65.925L99.7,204.737l15.976-15.975,31.387,31.5,11.25-11.25L197.124,170.2Z" transform="translate(-62.312 -106.375)"/><path class="d" d="M310.675,186.063,256,240.737V209.012L294.813,170.2Z" transform="translate(-160 -106.375)"/></svg>