<svg width="36" height="36" viewBox="0 0 36 36" fill="none" xmlns="http://www.w3.org/2000/svg">
<circle cx="18" cy="18" r="18" fill="black" fill-opacity="0.2"/>
<g clip-path="url(#clip0)">
<path d="M12.2724 23.7276C11.0633 22.5184 11.0633 20.5526 12.2724 19.3435L15.1008 16.5151L13.7573 15.1716L10.9289 18C8.97729 19.9516 8.97729 23.1194 10.9289 25.0711C12.8805 27.0227 16.0484 27.0227 18 25.0711L20.8284 22.2426L19.4849 20.8991L16.6565 23.7276C15.4473 24.9367 13.4816 24.9367 12.2724 23.7276ZM15.8787 21.5355L21.5355 15.8787L20.1213 14.4645L14.4644 20.1213L15.8787 21.5355ZM18 10.9289L15.1715 13.7573L16.515 15.1009L19.3435 12.2724C20.5526 11.0633 22.5184 11.0633 23.7275 12.2724C24.9367 13.4816 24.9367 15.4473 23.7275 16.6565L20.8991 19.4849L22.2426 20.8284L25.071 18C27.0227 16.0484 27.0227 12.8805 25.071 10.9289C23.1194 8.97731 19.9516 8.97731 18 10.9289Z" fill="white"/>
</g>
<defs>
<clipPath id="clip0">
<rect width="24" height="24" fill="white" transform="translate(1.02942 18) rotate(-45)"/>
</clipPath>
</defs>
</svg>
