<svg xmlns="http://www.w3.org/2000/svg" width="36" height="36" viewBox="0 0 36 36"><defs><style>.a{fill:none;}.b,.c{fill:#e9262c;}.b{opacity:0.3;}</style></defs><path class="a" d="M0,0H36V36H0Z"/><path class="b" d="M30.5,13.5A1.5,1.5,0,0,0,29,15v6H5V15a1.5,1.5,0,1,0-3,0v7.5A1.5,1.5,0,0,0,3.5,24h27A1.5,1.5,0,0,0,32,22.5V15A1.5,1.5,0,0,0,30.5,13.5ZM8,18H26V15a4.479,4.479,0,0,1,1.5-3.33V7.5A1.5,1.5,0,0,0,26,6H8A1.5,1.5,0,0,0,6.5,7.5v4.17A4.479,4.479,0,0,1,8,15Z" transform="translate(1 3)"/><path class="c" d="M31.5,11.5v-3A4.513,4.513,0,0,0,27,4H9A4.513,4.513,0,0,0,4.5,8.5v3A4.513,4.513,0,0,0,0,16v7.5A4.513,4.513,0,0,0,4.5,28h27A4.513,4.513,0,0,0,36,23.5V16A4.513,4.513,0,0,0,31.5,11.5Zm-24-3A1.5,1.5,0,0,1,9,7H27a1.5,1.5,0,0,1,1.5,1.5v4.17A4.479,4.479,0,0,0,27,16v3H9V16a4.479,4.479,0,0,0-1.5-3.33ZM33,23.5A1.5,1.5,0,0,1,31.5,25H4.5A1.5,1.5,0,0,1,3,23.5V16a1.5,1.5,0,0,1,3,0v6H30V16a1.5,1.5,0,0,1,3,0Z" transform="translate(0 2)"/></svg>