<svg id="Group_1836" data-name="Group 1836" xmlns="http://www.w3.org/2000/svg" width="24" height="24" viewBox="0 0 24 24">
  <circle id="Ellipse_294" data-name="Ellipse 294" cx="12" cy="12" r="12" fill="#f76301"/>
  <g id="monetization_on-24px" transform="translate(3 3)">
    <path id="Path_6252" data-name="Path 6252" d="M0,0H18V18H0Z" fill="none"/>
    <path id="Path_6253" data-name="Path 6253" d="M9.5,2A7.5,7.5,0,1,0,17,9.5,7.5,7.5,0,0,0,9.5,2Zm0,13.5a6,6,0,1,1,6-6A6.008,6.008,0,0,1,9.5,15.5Zm.233-6.645C8.405,8.517,7.977,8.15,7.977,7.6c0-.63.592-1.073,1.575-1.073,1.035,0,1.425.495,1.455,1.23H12.29a2.327,2.327,0,0,0-1.867-2.227V4.25H8.675V5.517a2.266,2.266,0,0,0-2.04,2.108c0,1.342,1.118,2.017,2.745,2.408,1.462.345,1.755.862,1.755,1.4,0,.4-.293,1.043-1.575,1.043-1.2,0-1.672-.54-1.74-1.23H6.53a2.432,2.432,0,0,0,2.145,2.227V14.75H10.43V13.5c1.14-.218,2.04-.87,2.047-2.077C12.47,9.77,11.052,9.2,9.733,8.855Z" transform="translate(-0.5 -0.5)" fill="#fff"/>
  </g>
</svg>
