<svg id="Group_1834" data-name="Group 1834" xmlns="http://www.w3.org/2000/svg" width="24" height="24" viewBox="0 0 24 24">
  <circle id="Ellipse_294" data-name="Ellipse 294" cx="12" cy="12" r="12" fill="#f76301"/>
  <g id="shopping_basket-24px" transform="translate(3 3)">
    <path id="Path_6248" data-name="Path 6248" d="M0,0H18V18H0Z" fill="none"/>
    <path id="Path_6249" data-name="Path 6249" d="M16.75,7.255H13.157L9.872,2.335A.744.744,0,0,0,9.25,2.02a.733.733,0,0,0-.622.323L5.342,7.255H1.75a.752.752,0,0,0-.75.75.632.632,0,0,0,.03.2l1.9,6.953a1.492,1.492,0,0,0,1.44,1.095h9.75a1.507,1.507,0,0,0,1.448-1.095l1.905-6.953.022-.2A.752.752,0,0,0,16.75,7.255Zm-7.5-3.15,2.1,3.15H7.15Zm4.875,10.65-9.742.007L2.733,8.755H15.775Zm-4.875-4.5a1.5,1.5,0,1,0,1.5,1.5A1.5,1.5,0,0,0,9.25,10.255Z" transform="translate(-0.25 -0.505)" fill="#fff"/>
  </g>
</svg>
