<svg id="Group_1838" data-name="Group 1838" xmlns="http://www.w3.org/2000/svg" width="24" height="24" viewBox="0 0 24 24">
  <circle id="Ellipse_294" data-name="Ellipse 294" cx="12" cy="12" r="12" fill="rgba(0,0,0,0.38)"/>
  <g id="help_outline-24px" transform="translate(3 3)">
    <path id="Path_6256" data-name="Path 6256" d="M0,0H18V18H0Z" fill="none"/>
    <path id="Path_6257" data-name="Path 6257" d="M8.75,14h1.5V12.5H8.75ZM9.5,2A7.5,7.5,0,1,0,17,9.5,7.5,7.5,0,0,0,9.5,2Zm0,13.5a6,6,0,1,1,6-6A6.008,6.008,0,0,1,9.5,15.5ZM9.5,5a3,3,0,0,0-3,3H8a1.5,1.5,0,0,1,3,0c0,1.5-2.25,1.313-2.25,3.75h1.5c0-1.687,2.25-1.875,2.25-3.75A3,3,0,0,0,9.5,5Z" transform="translate(-0.5 -0.5)" fill="#fff"/>
  </g>
</svg>
