<svg id="Group_1835" data-name="Group 1835" xmlns="http://www.w3.org/2000/svg" width="24" height="24" viewBox="0 0 24 24">
  <circle id="Ellipse_294" data-name="Ellipse 294" cx="12" cy="12" r="12" fill="#f76301"/>
  <g id="favorite_border-24px" transform="translate(3 3)">
    <path id="Path_6250" data-name="Path 6250" d="M0,0H18V18H0Z" fill="none"/>
    <path id="Path_6251" data-name="Path 6251" d="M12.875,3A4.491,4.491,0,0,0,9.5,4.568,4.491,4.491,0,0,0,6.125,3,4.085,4.085,0,0,0,2,7.125C2,9.96,4.55,12.27,8.413,15.78l1.087.983,1.087-.99C14.45,12.27,17,9.96,17,7.125A4.085,4.085,0,0,0,12.875,3Zm-3.3,11.662-.075.075-.075-.075C5.855,11.43,3.5,9.293,3.5,7.125A2.563,2.563,0,0,1,6.125,4.5,2.932,2.932,0,0,1,8.8,6.27h1.4a2.913,2.913,0,0,1,2.67-1.77A2.563,2.563,0,0,1,15.5,7.125C15.5,9.293,13.145,11.43,9.575,14.662Z" transform="translate(-0.5 -0.75)" fill="#fff"/>
  </g>
</svg>
