<svg id="Group_1839" data-name="Group 1839" xmlns="http://www.w3.org/2000/svg" width="24" height="24" viewBox="0 0 24 24">
  <circle id="Ellipse_294" data-name="Ellipse 294" cx="12" cy="12" r="12" fill="rgba(0,0,0,0.38)"/>
  <g id="lock-24px" transform="translate(3 3)">
    <g id="Group_1845" data-name="Group 1845">
      <path id="Path_6260" data-name="Path 6260" d="M0,0H18V18H0Z" fill="none"/>
      <path id="Path_6261" data-name="Path 6261" d="M0,0H18V18H0Z" fill="none" opacity="0.87"/>
    </g>
    <path id="Path_6262" data-name="Path 6262" d="M14.5,6.25h-.75V4.75a3.75,3.75,0,0,0-7.5,0v1.5H5.5A1.5,1.5,0,0,0,4,7.75v7.5a1.5,1.5,0,0,0,1.5,1.5h9a1.5,1.5,0,0,0,1.5-1.5V7.75A1.5,1.5,0,0,0,14.5,6.25ZM7.75,4.75a2.25,2.25,0,0,1,4.5,0v1.5H7.75Zm6.75,10.5h-9V7.75h9ZM10,13a1.5,1.5,0,1,0-1.5-1.5A1.5,1.5,0,0,0,10,13Z" transform="translate(-1 -0.25)" fill="rgba(255,255,255,0.87)"/>
  </g>
</svg>
