<svg xmlns="http://www.w3.org/2000/svg" width="15.234" height="20" viewBox="0 0 15.234 20"><defs><style>.a{fill:#fff;}</style></defs><g transform="translate(-61)"><g transform="translate(64.516)"><path class="a" d="M157.445,1.172h-.686a1.758,1.758,0,0,0-3.315,0h-.686A1.76,1.76,0,0,0,151,2.93a.586.586,0,0,0,.586.586h7.031a.586.586,0,0,0,.586-.586A1.76,1.76,0,0,0,157.445,1.172Z" transform="translate(-151)"/></g><g transform="translate(61 2.344)"><path class="a" d="M74.477,60h-.645a2.929,2.929,0,0,1,.059.586,1.76,1.76,0,0,1-1.758,1.758H65.1a1.76,1.76,0,0,1-1.758-1.758A2.929,2.929,0,0,1,63.4,60h-.645A1.76,1.76,0,0,0,61,61.758V75.9a1.76,1.76,0,0,0,1.758,1.758H74.477A1.76,1.76,0,0,0,76.234,75.9V61.758A1.76,1.76,0,0,0,74.477,60ZM66.859,74.063H64.516a.586.586,0,0,1,0-1.172h2.344a.586.586,0,0,1,0,1.172Zm0-4.1H64.516a.586.586,0,0,1,0-1.172h2.344a.586.586,0,0,1,0,1.172Zm0-4.1H64.516a.586.586,0,0,1,0-1.172h2.344a.586.586,0,0,1,0,1.172Zm5.688,8.375a.586.586,0,1,1-.829.829l-.758-.758-.758.758a.586.586,0,0,1-.829-.829l.758-.758-.758-.758a.586.586,0,0,1,.829-.829l.758.758.758-.758a.586.586,0,0,1,.829.829l-.758.758Zm.586-5.617-1.758,1.758a.586.586,0,0,1-.829,0L69.375,69.2a.586.586,0,0,1,.829-.829l.758.758L72.3,67.789a.586.586,0,1,1,.829.829Zm0-3.516L71.375,66.86a.586.586,0,0,1-.829,0l-1.172-1.172a.586.586,0,0,1,.829-.829l.758.758L72.3,64.273a.586.586,0,1,1,.829.829Z" transform="translate(-61 -60)"/></g></g></svg>