<svg id="location_on-24px" xmlns="http://www.w3.org/2000/svg" width="12" height="12" viewBox="0 0 12 12">
  <path id="Path_6082" data-name="Path 6082" d="M0,0H12V12H0Z" fill="none"/>
  <path id="Path_6083" data-name="Path 6083" d="M8.5,2A3.5,3.5,0,0,0,5,5.5C5,8.125,8.5,12,8.5,12S12,8.125,12,5.5A3.5,3.5,0,0,0,8.5,2ZM6,5.5a2.5,2.5,0,0,1,5,0C11,6.94,9.56,9.1,8.5,10.44,7.46,9.1,6,6.925,6,5.5Z" transform="translate(-2.5 -1)"/>
  <circle id="Ellipse_271" data-name="Ellipse 271" cx="1.25" cy="1.25" r="1.25" transform="translate(4.75 3.25)"/>
</svg>
