<svg xmlns="http://www.w3.org/2000/svg" width="35.415" height="35.415" viewBox="0 0 35.415 35.415"><defs><style>.a{fill:none;}.b{fill:#d6d6d6;}</style></defs><path class="a" d="M0,0H35.415V35.415H0Z" transform="translate(0)"/><path class="b" d="M26.61,9.378V13.79s-2.936.015-2.951,0V9.378H19.232s.015-2.936,0-2.951h4.427V2H26.61V6.427h4.427V9.378Zm-4.427,5.9V10.854H17.756V6.427H5.951A2.96,2.96,0,0,0,3,9.378V27.085a2.96,2.96,0,0,0,2.951,2.951H23.658a2.96,2.96,0,0,0,2.951-2.951V15.28ZM5.951,27.085l4.427-5.9,2.951,4.427,4.427-5.9,5.9,7.378Z" transform="translate(1.427 0.951)"/></svg>