<svg xmlns="http://www.w3.org/2000/svg" width="36" height="36" viewBox="0 0 36 36"><defs><style>.a{fill:none;}.b,.c{fill:#e9262c;}.b{opacity:0.3;}</style></defs><path class="a" d="M0,0H36V36H0Z"/><path class="b" d="M5,26H26V5H5ZM14,8h9v3H14Zm0,6h9v3H14Zm0,6h9v3H14ZM8,8h3v3H8Zm0,6h3v3H8Zm0,6h3v3H8Z" transform="translate(2.5 2.5)"/><path class="c" d="M15,9h9v3H15Zm0,6h9v3H15Zm0,6h9v3H15ZM9,9h3v3H9Zm0,6h3v3H9Zm0,6h3v3H9ZM28.65,3H4.35A1.344,1.344,0,0,0,3,4.35v24.3A1.45,1.45,0,0,0,4.35,30h24.3A1.591,1.591,0,0,0,30,28.65V4.35A1.45,1.45,0,0,0,28.65,3ZM27,27H6V6H27Z" transform="translate(1.5 1.5)"/></svg>