<svg id="top_product" data-name="top product" xmlns="http://www.w3.org/2000/svg" xmlns:xlink="http://www.w3.org/1999/xlink" width="24" height="32" viewBox="0 0 24 32">
  <defs>
    <clipPath id="clip-path">
      <path id="Path_6079" data-name="Path 6079" d="M0,0H24V32H0Z" fill="#f76301"/>
    </clipPath>
  </defs>
  <g id="Mask_Group_16" data-name="Mask Group 16" clip-path="url(#clip-path)">
    <path id="Icon_material-bookmark" data-name="Icon material-bookmark" d="M28.075,4.5H10.929c-1.886,0-3.412,1.865-3.412,4.145L7.5,41.8l12-6.217,12,6.217V8.645C31.5,6.365,29.961,4.5,28.075,4.5Z" transform="translate(-7.5 -9.743)" fill="#f76301"/>
  </g>
  <g id="Group_1376" data-name="Group 1376" transform="translate(4 5.182)">
    <g id="Group_1375" data-name="Group 1375">
      <path id="Path_6080" data-name="Path 6080" d="M17,9.129,15.225,7.1l.247-2.684-2.625-.6L11.473,1.5,9,2.562,6.527,1.5,5.153,3.82l-2.625.589L2.775,7.1,1,9.129l1.775,2.029-.247,2.691,2.625.6,1.375,2.327L9,15.7l2.473,1.062,1.375-2.32,2.625-.6-.247-2.684Zm-2.873,1.076-.407.473.058.618.131,1.418-1.382.313-.611.138-.32.538-.72,1.222-1.295-.56L9,14.118l-.575.247-1.295.56-.72-1.215-.32-.538-.611-.138L4.1,12.722,4.229,11.3l.058-.618-.407-.473L2.942,9.136,3.88,8.06l.407-.473-.065-.625L4.091,5.551l1.382-.313L6.084,5.1l.32-.538.72-1.222,1.295.56L9,4.147,9.575,3.9l1.295-.56.72,1.222.32.538.611.138,1.382.313-.131,1.418-.058.618.407.473.938,1.069Z" transform="translate(-1 -1.5)" fill="#fff"/>
      <path id="Path_6081" data-name="Path 6081" d="M9.054,12.146,7.366,10.452,6.29,11.535l2.764,2.771,5.338-5.353L13.315,7.87Z" transform="translate(-2.443 -3.237)" fill="#fff"/>
    </g>
  </g>
</svg>
