<svg xmlns="http://www.w3.org/2000/svg" width="22.122" height="22.122" viewBox="0 0 22.122 22.122"><defs><style>.a{fill:#00007f;stroke:#00007f;stroke-width:0.5px;}</style></defs><g transform="translate(0.25 0.25)"><path class="a" d="M10.135,18.712H2.027A2.03,2.03,0,0,1,0,16.685V9.027A2.03,2.03,0,0,1,2.027,7H12.388a2.03,2.03,0,0,1,2.027,2.027v2.7a.676.676,0,0,1-1.351,0v-2.7a.677.677,0,0,0-.676-.676H2.027a.677.677,0,0,0-.676.676v7.658a.677.677,0,0,0,.676.676h8.108a.676.676,0,1,1,0,1.351Z" transform="translate(0 -0.694)"/><path class="a" d="M11.334,7.658a.676.676,0,0,1-.676-.676V4.5a3.153,3.153,0,0,0-6.306,0V6.982A.676.676,0,1,1,3,6.982V4.5a4.5,4.5,0,0,1,9.009,0V6.982A.676.676,0,0,1,11.334,7.658Z" transform="translate(-0.297)"/><path class="a" d="M22.978,17.653h-1.8a.676.676,0,1,1,0-1.351H22.3V15.176a.676.676,0,1,1,1.351,0v1.8A.676.676,0,0,1,22.978,17.653Z" transform="translate(-2.031 -1.437)"/><path class="a" d="M14.676,23.153A.676.676,0,0,1,14,22.478v-1.8A.676.676,0,0,1,14.676,20h1.8a.676.676,0,1,1,0,1.351H15.351v1.126A.676.676,0,0,1,14.676,23.153Z" transform="translate(-1.387 -1.982)"/><path class="a" d="M14.866,18.054a.705.705,0,0,1-.2-.029.677.677,0,0,1-.45-.843,4.5,4.5,0,0,1,8.271-.8.676.676,0,0,1-1.2.633,3.144,3.144,0,0,0-5.782.556A.676.676,0,0,1,14.866,18.054Z" transform="translate(-1.406 -1.387)"/><path class="a" d="M18.555,23.554a4.48,4.48,0,0,1-3.967-2.386.676.676,0,0,1,1.2-.633,3.144,3.144,0,0,0,5.784-.56.675.675,0,1,1,1.289.4A4.487,4.487,0,0,1,18.555,23.554Z" transform="translate(-1.438 -1.932)"/></g></svg>