<svg id="Group_1835" data-name="Group 1835" xmlns="http://www.w3.org/2000/svg" width="24" height="24" viewBox="0 0 24 24">
  <circle id="Ellipse_294" data-name="Ellipse 294" cx="12" cy="12" r="12" fill="#f76301"/>
  <g id="weekend-24px" transform="translate(4 4)">
    <path id="Path_6281" data-name="Path 6281" d="M0,0H16V16H0Z" fill="none"/>
    <path id="Path_6282" data-name="Path 6282" d="M14,7.333V6a2.006,2.006,0,0,0-2-2H4A2.006,2.006,0,0,0,2,6V7.333a2.006,2.006,0,0,0-2,2v3.333a2.006,2.006,0,0,0,2,2H14a2.006,2.006,0,0,0,2-2V9.333A2.006,2.006,0,0,0,14,7.333ZM3.333,6A.669.669,0,0,1,4,5.333h8A.669.669,0,0,1,12.667,6V7.853A1.991,1.991,0,0,0,12,9.333v1.333H4V9.333a1.991,1.991,0,0,0-.667-1.48Zm11.333,6.667a.669.669,0,0,1-.667.667H2a.669.669,0,0,1-.667-.667V9.333a.667.667,0,1,1,1.333,0V12H13.333V9.333a.667.667,0,0,1,1.333,0Z" transform="translate(0 -1.333)" fill="#fff"/>
  </g>
</svg>
