<svg id="Group_1837" data-name="Group 1837" xmlns="http://www.w3.org/2000/svg" width="24" height="24" viewBox="0 0 24 24">
  <circle id="Ellipse_294" data-name="Ellipse 294" cx="12" cy="12" r="12" fill="#f76301"/>
  <g id="video_library-24px" transform="translate(4 4)">
    <path id="Path_6285" data-name="Path 6285" d="M0,0H16V16H0Z" fill="none"/>
    <path id="Path_6286" data-name="Path 6286" d="M3.333,4.667H2V14a1.337,1.337,0,0,0,1.333,1.333h9.333V14H3.333ZM14,2H6A1.337,1.337,0,0,0,4.667,3.333v8A1.337,1.337,0,0,0,6,12.667h8a1.337,1.337,0,0,0,1.333-1.333v-8A1.337,1.337,0,0,0,14,2Zm0,9.333H6v-8h8Zm-5.333-7v6l4-3Z" transform="translate(-0.667 -0.667)" fill="#fff"/>
  </g>
</svg>
