<svg id="warning-sign" xmlns="http://www.w3.org/2000/svg" width="36" height="33.919" viewBox="0 0 36 33.919">
  <path id="Path_6298" data-name="Path 6298" d="M35.279,26.488,22.536,3.074a5.283,5.283,0,0,0-9.07,0c0,.021-.021.021-.021.042L.742,26.446A5.268,5.268,0,0,0,.7,31.762a5.2,5.2,0,0,0,4.577,2.658H30.723a5.276,5.276,0,0,0,4.556-7.931Zm0,0" transform="translate(-0.001 -0.5)" fill="#444"/>
  <path id="Path_6299" data-name="Path 6299" d="M273.3,31.762a5.2,5.2,0,0,1-4.577,2.658H256V.5a5.266,5.266,0,0,1,4.535,2.574l12.743,23.414a5.239,5.239,0,0,1,.021,5.273Zm0,0" transform="translate(-237.999 -0.501)" fill="#292929"/>
  <path id="Path_6300" data-name="Path 6300" d="M33.137,60.2a3.083,3.083,0,0,1-2.744-1.592,3.145,3.145,0,0,1,.032-3.21l.015-.026L43.133,32.059q.025-.042.048-.084a3.172,3.172,0,0,1,5.388.045L61.3,55.414l.016.028a3.135,3.135,0,0,1,.009,3.165A3.083,3.083,0,0,1,58.581,60.2Zm0,0" transform="translate(-27.861 -28.39)" fill="#ffd400"/>
  <path id="Path_6301" data-name="Path 6301" d="M271.441,55.414,258.709,32.02A3.175,3.175,0,0,0,256,30.5V60.2h12.721a3.083,3.083,0,0,0,2.744-1.592,3.135,3.135,0,0,0-.009-3.165Zm0,0" transform="translate(-238.001 -28.39)" fill="#ff9f00"/>
  <path id="Path_6302" data-name="Path 6302" d="M214.164,122.9A3.16,3.16,0,0,0,211,126.062v6.328a3.164,3.164,0,0,0,6.328,0v-6.328A3.16,3.16,0,0,0,214.164,122.9Zm0,0" transform="translate(-196.164 -114.292)" fill="#6e6e6e"/>
  <path id="Path_6303" data-name="Path 6303" d="M214.164,332.9a3.164,3.164,0,1,0,3.164,3.164A3.16,3.16,0,0,0,214.164,332.9Zm0,0" transform="translate(-196.164 -309.526)" fill="#6e6e6e"/>
  <g id="Group_2038" data-name="Group 2038" transform="translate(18 8.606)">
    <path id="Path_6304" data-name="Path 6304" d="M259.164,336.062A3.16,3.16,0,0,1,256,339.226V332.9A3.16,3.16,0,0,1,259.164,336.062Zm0,0" transform="translate(-256 -318.132)" fill="#444"/>
    <path id="Path_6305" data-name="Path 6305" d="M259.164,126.062v6.328A3.16,3.16,0,0,1,256,135.554V122.9A3.16,3.16,0,0,1,259.164,126.062Zm0,0" transform="translate(-256 -122.898)" fill="#444"/>
  </g>
</svg>
