<svg xmlns="http://www.w3.org/2000/svg" width="36" height="36" viewBox="0 0 36 36"><defs><style>.a{fill:none;}.b{fill:rgba(0,0,0,0.3);}</style></defs><path class="a" d="M0,0H36V36H0Z"/><path class="b" d="M32.4,6.895h-3.3V3.6a1.6,1.6,0,0,0-1.6-1.6h-.049a1.605,1.605,0,0,0-1.615,1.6v3.3H22.563a1.626,1.626,0,0,0-1.615,1.6v.049a1.609,1.609,0,0,0,1.615,1.615h3.279v3.279a1.6,1.6,0,0,0,1.615,1.6h.049a1.6,1.6,0,0,0,1.6-1.6V10.158h3.3a1.6,1.6,0,0,0,1.6-1.6V8.494A1.6,1.6,0,0,0,32.4,6.895Zm-8.191,6.543V11.789H22.563a3.232,3.232,0,0,1-3.247-3.3,3.135,3.135,0,0,1,.441-1.6H6.263A3.273,3.273,0,0,0,3,10.158V29.737A3.273,3.273,0,0,0,6.263,33H25.842a3.273,3.273,0,0,0,3.263-3.263V16.227a3.342,3.342,0,0,1-1.664.457A3.263,3.263,0,0,1,24.211,13.437Zm-.065,16.3H7.895a.815.815,0,0,1-.653-1.305l3.231-4.291a.825.825,0,0,1,1.338.033l2.611,3.932,4.258-5.678a.812.812,0,0,1,1.289-.016l4.813,6A.813.813,0,0,1,24.145,29.737Z"/></svg>